{"glyphs":{"0":{"ha":822,"x_min":0,"x_max":0,"o":"m 46 492 b 411 -17 46 258 119 -17 b 776 492 703 -17 776 258 b 411 1000 776 725 703 1000 b 46 492 119 1000 46 725 z m 254 492 b 411 808 254 594 261 808 b 568 492 561 808 568 594 b 411 175 568 389 561 175 b 254 492 261 175 254 389 z "},"1":{"ha":822,"x_min":0,"x_max":0,"o":"m 400 0 l 600 0 l 600 983 l 406 983 l 85 713 l 203 576 l 400 750 z "},"2":{"ha":822,"x_min":0,"x_max":0,"o":"m 68 0 l 754 0 l 754 183 l 318 183 l 617 440 b 746 704 692 506 746 578 b 428 1000 746 901 607 1000 b 81 699 235 1000 93 901 l 289 683 b 417 808 294 754 340 808 b 538 701 481 808 538 768 b 450 564 538 642 489 600 l 68 221 z "},"3":{"ha":822,"x_min":0,"x_max":0,"o":"m 300 415 l 349 415 b 543 301 442 415 543 413 b 410 175 543 228 500 175 b 264 289 321 175 278 219 l 44 238 b 397 -17 85 61 222 -17 b 751 278 590 -17 751 81 b 567 507 751 392 685 492 l 567 511 b 735 726 675 533 735 618 b 403 1000 735 915 578 1000 b 53 764 236 1000 96 935 l 282 717 b 404 808 294 768 339 808 b 526 706 472 808 526 765 b 368 596 526 613 444 596 l 300 596 z "},"4":{"ha":822,"x_min":0,"x_max":0,"o":"m 463 0 l 663 0 l 663 197 l 789 197 l 789 372 l 663 372 l 663 983 l 435 983 l 33 372 l 33 197 l 463 197 z m 463 372 l 242 372 l 460 711 l 463 711 z "},"5":{"ha":822,"x_min":0,"x_max":0,"o":"m 718 983 l 124 983 l 113 440 b 317 476 178 463 249 476 b 543 314 425 476 543 443 b 397 167 543 229 486 167 b 263 285 325 167 274 214 l 44 235 b 376 -17 88 68 207 -17 b 751 335 592 -17 751 113 b 411 660 751 536 610 660 b 324 649 374 660 347 657 l 328 800 l 718 800 z "},"6":{"ha":822,"x_min":0,"x_max":0,"o":"m 629 983 l 375 983 l 160 647 b 42 321 97 549 42 463 b 408 -17 42 118 203 -17 b 775 321 614 -17 775 118 b 467 642 775 500 651 642 b 399 632 443 642 421 638 z m 567 329 b 408 175 567 240 501 175 b 250 329 315 175 250 240 b 408 483 250 418 315 483 b 567 329 501 483 567 418 z "},"7":{"ha":822,"x_min":0,"x_max":0,"o":"m 135 0 l 378 0 l 771 800 l 771 983 l 51 983 l 51 792 l 538 792 z "},"8":{"ha":822,"x_min":0,"x_max":0,"o":"m 82 729 b 249 511 82 622 143 542 l 249 508 b 65 269 131 476 65 392 b 411 -17 65 79 229 -17 b 757 269 593 -17 757 79 b 574 508 757 392 692 476 l 574 511 b 740 729 679 542 740 622 b 411 1000 740 910 592 1000 b 82 729 231 1000 82 910 z m 290 700 b 411 808 290 760 339 808 b 532 700 483 808 532 760 b 411 590 532 639 483 590 b 290 700 339 590 290 639 z m 274 299 b 411 424 274 368 329 424 b 549 299 493 424 549 368 b 411 175 549 231 493 175 b 274 299 329 175 274 231 z "},"9":{"ha":822,"x_min":0,"x_max":0,"o":"m 193 0 l 447 0 l 663 336 b 781 663 725 435 781 521 b 414 1000 781 865 619 1000 b 47 663 208 1000 47 865 b 356 342 47 483 171 342 b 424 351 379 342 401 346 z m 256 654 b 414 808 256 743 321 808 b 572 654 507 808 572 743 b 414 500 572 565 507 500 b 256 654 321 500 256 565 z "}," ":{"ha":411,"x_min":0,"x_max":0,"o":""},"!":{"ha":617,"x_min":0,"x_max":0,"o":"m 413 983 l 204 983 l 204 325 l 413 325 z m 181 119 b 308 -8 181 49 238 -8 b 436 119 379 -8 436 49 b 308 247 436 190 379 247 b 181 119 238 247 181 190 z "},"\"":{"ha":722,"x_min":0,"x_max":0,"o":"m 435 592 l 610 592 l 610 983 l 435 983 z m 113 592 l 288 592 l 288 983 l 113 983 z "},"#":{"ha":822,"x_min":0,"x_max":0,"o":"m 140 0 l 275 0 l 314 279 l 451 279 l 413 0 l 547 0 l 586 279 l 719 279 l 719 404 l 603 404 l 626 579 l 760 579 l 760 704 l 643 704 l 682 983 l 547 983 l 508 704 l 371 704 l 410 983 l 275 983 l 236 704 l 103 704 l 103 579 l 219 579 l 196 404 l 63 404 l 63 279 l 179 279 z m 468 404 l 331 404 l 354 579 l 492 579 z "},"$":{"ha":822,"x_min":0,"x_max":0,"o":"m 456 1097 l 364 1097 l 364 1000 b 47 700 200 981 47 875 b 263 440 47 560 122 485 l 364 410 l 364 175 b 168 261 289 181 217 201 l 21 96 b 364 -17 113 13 242 -17 l 364 -114 l 456 -114 l 456 -17 b 790 297 638 1 790 103 b 589 549 790 426 711 513 l 456 588 l 456 808 b 619 750 515 806 575 789 l 753 913 b 456 1000 672 976 556 1000 z m 364 610 b 264 710 340 618 264 626 b 364 804 264 768 313 793 z m 456 386 l 482 376 b 574 281 531 358 574 340 b 456 178 574 217 513 189 z "},"%":{"ha":1260,"x_min":0,"x_max":0,"o":"m 706 260 b 979 -17 706 107 828 -17 b 1253 260 1131 -17 1253 107 b 979 535 1253 413 1131 535 b 706 260 828 535 706 413 z m 1111 260 b 979 125 1111 185 1053 125 b 847 260 906 125 847 185 b 979 393 847 333 906 393 b 1111 260 1053 393 1111 333 z m 7 725 b 281 450 7 572 129 450 b 554 725 432 450 554 572 b 281 1000 554 878 432 1000 b 7 725 129 1000 7 878 z m 413 725 b 281 592 413 651 354 592 b 149 725 207 592 149 651 b 281 858 149 799 207 858 b 413 725 354 858 413 799 z m 292 15 l 397 -44 l 971 963 l 854 1028 z "},"&":{"ha":1054,"x_min":0,"x_max":0,"o":"m 1033 507 l 792 507 l 696 376 l 569 511 b 751 767 668 563 751 650 b 465 1008 751 932 617 1008 b 158 758 308 1008 158 936 b 267 538 158 661 203 607 b 58 269 150 499 58 396 b 407 -25 58 72 229 -25 b 696 93 524 -25 615 10 l 778 0 l 1046 0 l 826 232 z m 463 842 b 560 753 515 842 560 810 b 449 626 560 697 492 651 b 367 750 415 657 367 701 b 463 842 367 806 408 842 z m 569 231 b 415 158 524 190 479 158 b 283 279 347 158 283 207 b 396 419 283 353 342 386 z "},"’":{"ha":411,"x_min":0,"x_max":0,"o":"m 357 983 l 157 983 l 54 592 l 232 592 z "},"(":{"ha":436,"x_min":0,"x_max":0,"o":"m 264 1017 l 261 1011 b 61 400 133 822 61 628 b 261 -211 61 172 133 -22 l 264 -217 l 407 -133 b 228 400 294 43 228 185 b 407 933 228 615 294 757 z "},")":{"ha":436,"x_min":0,"x_max":0,"o":"m 172 -217 l 175 -211 b 375 400 303 -22 375 172 b 175 1011 375 628 303 822 l 172 1017 l 29 933 b 208 400 142 757 208 615 b 29 -133 208 185 142 43 z "},"*":{"ha":669,"x_min":0,"x_max":0,"o":"m 407 983 l 265 983 l 265 792 l 83 857 l 39 725 l 224 661 l 107 510 l 219 425 l 332 578 l 449 418 l 564 503 l 449 661 l 631 719 l 589 851 l 407 792 z "},"+":{"ha":925,"x_min":0,"x_max":0,"o":"m 82 333 l 375 333 l 375 40 l 550 40 l 550 333 l 843 333 l 843 508 l 550 508 l 550 801 l 375 801 l 375 508 l 82 508 z "},",":{"ha":411,"x_min":0,"x_max":0,"o":"m 24 -167 l 201 -167 l 326 225 l 126 225 z "},"-":{"ha":411,"x_min":0,"x_max":0,"o":"m 376 429 l 35 429 l 35 263 l 376 263 z "},".":{"ha":411,"x_min":0,"x_max":0,"o":"m 78 119 b 206 -8 78 49 135 -8 b 333 119 276 -8 333 49 b 206 247 333 190 276 247 b 78 119 135 247 78 190 z "},"/":{"ha":565,"x_min":0,"x_max":0,"o":"m -4 -25 l 153 -74 l 569 1008 l 411 1057 z "},":":{"ha":411,"x_min":0,"x_max":0,"o":"m 78 119 b 206 -8 78 49 135 -8 b 333 119 276 -8 333 49 b 206 247 333 190 276 247 b 78 119 135 247 78 190 z m 78 564 b 206 436 78 493 135 436 b 333 564 276 436 333 493 b 206 692 333 635 276 692 b 78 564 135 692 78 635 z "},";":{"ha":411,"x_min":0,"x_max":0,"o":"m 24 -167 l 201 -167 l 326 225 l 126 225 z m 78 564 b 206 436 78 493 135 436 b 333 564 276 436 333 493 b 206 692 333 635 276 692 b 78 564 135 692 78 635 z "},"<":{"ha":925,"x_min":0,"x_max":0,"o":"m 814 783 l 111 508 l 111 333 l 814 58 l 814 247 l 374 419 l 374 422 l 814 594 z "},"=":{"ha":925,"x_min":0,"x_max":0,"o":"m 82 467 l 843 467 l 843 642 l 82 642 z m 82 200 l 843 200 l 843 375 l 82 375 z "},">":{"ha":925,"x_min":0,"x_max":0,"o":"m 111 58 l 814 333 l 814 508 l 111 783 l 111 594 l 551 422 l 551 419 l 111 247 z "},"?":{"ha":772,"x_min":0,"x_max":0,"o":"m 300 325 l 508 325 l 508 365 b 563 461 508 396 519 428 b 735 735 694 565 735 629 b 422 1008 735 914 592 1008 b 75 707 229 1008 94 903 l 289 693 b 426 817 294 761 340 817 b 526 719 483 817 526 781 b 349 511 526 656 451 610 b 300 386 314 478 300 442 z m 276 119 b 404 -8 276 49 333 -8 b 532 119 475 -8 532 49 b 404 247 532 190 475 247 b 276 119 333 247 276 190 z "},"@":{"ha":1111,"x_min":0,"x_max":0,"o":"m 660 506 b 514 338 660 429 631 338 b 418 461 436 338 418 403 b 557 633 418 557 472 633 b 660 506 626 633 660 579 z m 840 742 l 710 742 l 699 679 l 696 679 b 546 758 668 736 619 758 b 268 446 374 758 268 608 b 468 213 268 308 349 213 b 646 288 556 213 610 250 l 649 288 b 758 213 650 251 681 213 b 1067 551 842 213 1067 256 b 575 1008 1067 846 819 1008 b 44 490 282 1008 44 786 b 583 -25 44 189 288 -25 b 1010 185 753 -25 911 49 l 857 185 b 594 100 789 131 699 100 b 186 490 360 100 186 247 b 571 883 186 718 340 883 b 933 544 782 883 933 767 b 814 338 933 400 872 338 b 776 376 785 338 776 356 b 789 468 776 403 783 442 z "},"A":{"ha":1029,"x_min":0,"x_max":0,"o":"m -1 0 l 238 0 l 319 208 l 701 208 l 786 0 l 1031 0 l 603 983 l 424 983 z m 628 392 l 388 392 l 507 697 z "},"B":{"ha":900,"x_min":0,"x_max":0,"o":"m 100 0 l 503 0 b 872 274 678 0 872 68 b 657 514 872 401 786 497 l 657 517 b 826 733 758 549 826 624 b 467 983 826 947 639 983 l 100 983 z m 317 800 l 464 800 b 610 697 532 800 610 779 b 474 590 610 618 540 590 l 317 590 z m 317 407 l 481 407 b 656 299 551 407 656 392 b 511 183 656 213 579 183 l 317 183 z "},"C":{"ha":951,"x_min":0,"x_max":0,"o":"m 910 864 b 578 1008 826 971 688 1008 b 47 492 271 1008 47 807 b 578 -25 47 176 271 -25 b 933 146 713 -25 851 29 l 753 281 b 550 175 708 214 638 175 b 272 492 393 175 272 308 b 557 808 272 675 393 808 b 743 728 638 808 700 779 z "},"D":{"ha":1054,"x_min":0,"x_max":0,"o":"m 100 0 l 454 0 b 1007 489 747 0 1007 171 b 425 983 1007 849 742 983 l 100 983 z m 317 783 l 444 783 b 782 500 628 783 782 693 b 429 200 782 276 631 200 l 317 200 z "},"E":{"ha":875,"x_min":0,"x_max":0,"o":"m 108 0 l 801 0 l 801 200 l 325 200 l 325 400 l 751 400 l 751 600 l 325 600 l 325 783 l 776 783 l 776 983 l 108 983 z "},"F":{"ha":824,"x_min":0,"x_max":0,"o":"m 108 0 l 325 0 l 325 383 l 735 383 l 735 583 l 325 583 l 325 783 l 768 783 l 768 983 l 108 983 z "},"G":{"ha":1081,"x_min":0,"x_max":0,"o":"m 990 583 l 606 583 l 606 383 l 782 383 l 782 224 b 578 175 742 201 672 175 b 272 492 393 175 272 308 b 578 808 272 675 393 808 b 817 715 688 808 758 776 l 969 882 b 578 1008 871 974 733 1008 b 47 492 271 1008 47 807 b 578 -25 47 176 271 -25 b 990 69 722 -25 863 3 z "},"H":{"ha":1054,"x_min":0,"x_max":0,"o":"m 100 0 l 317 0 l 317 425 l 738 425 l 738 0 l 954 0 l 954 983 l 738 983 l 738 617 l 317 617 l 317 983 l 100 983 z "},"I":{"ha":411,"x_min":0,"x_max":0,"o":"m 97 0 l 314 0 l 314 983 l 97 983 z "},"J":{"ha":694,"x_min":0,"x_max":0,"o":"m 608 983 l 392 983 l 392 353 b 289 167 392 279 390 167 b 192 253 242 167 197 206 l -7 204 b 294 -25 25 47 139 -25 b 608 329 561 -25 608 147 z "},"K":{"ha":1003,"x_min":0,"x_max":0,"o":"m 108 0 l 325 0 l 325 467 l 725 0 l 1028 0 l 553 526 l 990 983 l 707 983 l 325 575 l 325 983 l 108 983 z "},"L":{"ha":746,"x_min":0,"x_max":0,"o":"m 108 0 l 726 0 l 726 200 l 325 200 l 325 983 l 108 983 z "},"M":{"ha":1311,"x_min":0,"x_max":0,"o":"m 100 0 l 317 0 l 317 754 l 319 754 l 568 0 l 733 0 l 992 754 l 994 754 l 994 0 l 1211 0 l 1211 983 l 885 983 l 657 342 l 654 342 l 428 983 l 100 983 z "},"N":{"ha":1132,"x_min":0,"x_max":0,"o":"m 100 0 l 317 0 l 317 700 l 319 700 l 749 0 l 1032 0 l 1032 983 l 815 983 l 815 300 l 813 300 l 394 983 l 100 983 z "},"O":{"ha":1156,"x_min":0,"x_max":0,"o":"m 47 492 b 578 -25 47 176 271 -25 b 1108 492 885 -25 1108 176 b 578 1008 1108 807 885 1008 b 47 492 271 1008 47 807 z m 272 492 b 578 808 272 675 393 808 b 883 492 763 808 883 675 b 578 175 883 308 763 175 b 272 492 393 175 272 308 z "},"P":{"ha":875,"x_min":0,"x_max":0,"o":"m 100 0 l 317 0 l 317 383 l 475 383 b 839 685 682 383 839 454 b 465 983 839 918 669 983 l 100 983 z m 317 800 l 428 800 b 614 685 511 800 614 786 b 461 567 614 593 538 567 l 317 567 z "},"Q":{"ha":1183,"x_min":0,"x_max":0,"o":"m 1176 167 l 901 167 l 901 169 b 1097 504 1036 229 1097 365 b 572 1008 1097 800 864 1008 b 47 504 281 1008 47 801 b 581 0 47 188 274 0 l 1176 0 z m 272 504 b 572 808 272 674 407 808 b 872 504 738 808 872 674 b 572 200 872 335 738 200 b 272 504 407 200 272 335 z "},"R":{"ha":900,"x_min":0,"x_max":0,"o":"m 100 0 l 317 0 l 317 393 l 424 393 l 629 0 l 889 0 l 639 415 b 851 685 778 440 851 547 b 481 983 851 914 682 983 l 100 983 z m 317 800 l 458 800 b 626 686 538 800 626 785 b 444 576 626 579 524 576 l 317 576 z "},"S":{"ha":797,"x_min":0,"x_max":0,"o":"m 735 906 b 433 1008 651 979 544 1008 b 58 689 240 1008 58 899 b 519 278 58 361 519 458 b 369 175 519 208 440 175 b 181 268 297 175 225 210 l 26 99 b 357 -25 119 13 231 -25 b 736 299 560 -25 736 79 b 283 707 736 643 283 528 b 429 808 283 781 368 808 b 586 743 482 808 551 788 z "},"T":{"ha":797,"x_min":0,"x_max":0,"o":"m 290 0 l 507 0 l 507 792 l 788 792 l 788 983 l 10 983 l 10 792 l 290 792 z "},"U":{"ha":1029,"x_min":0,"x_max":0,"o":"m 929 983 l 713 983 l 713 388 b 515 175 713 267 629 175 b 317 388 400 175 317 267 l 317 983 l 100 983 l 100 379 b 515 -25 100 147 242 -25 b 929 379 788 -25 929 147 z "},"V":{"ha":978,"x_min":0,"x_max":0,"o":"m 396 0 l 569 0 l 975 983 l 743 983 l 496 339 l 493 339 l 250 983 l 3 983 z "},"W":{"ha":1389,"x_min":0,"x_max":0,"o":"m 289 0 l 475 0 l 692 681 l 694 681 l 911 0 l 1104 0 l 1392 983 l 1172 983 l 1007 336 l 1004 336 l 800 983 l 599 983 l 393 353 l 390 353 l 233 983 l -3 983 z "},"X":{"ha":1003,"x_min":0,"x_max":0,"o":"m 0 0 l 257 0 l 490 396 l 731 0 l 1003 0 l 647 518 l 965 983 l 703 983 l 501 639 l 292 983 l 19 983 l 344 514 z "},"Y":{"ha":900,"x_min":0,"x_max":0,"o":"m 342 0 l 558 0 l 558 419 l 928 983 l 671 983 l 450 615 l 242 983 l -28 983 l 342 419 z "},"Z":{"ha":875,"x_min":0,"x_max":0,"o":"m 49 0 l 826 0 l 826 200 l 321 200 l 810 792 l 810 983 l 67 983 l 67 792 l 547 792 l 49 200 z "},"[":{"ha":411,"x_min":0,"x_max":0,"o":"m 383 1017 l 92 1017 l 92 -217 l 383 -217 l 383 -92 l 258 -92 l 258 892 l 383 892 z "},"\\":{"ha":565,"x_min":0,"x_max":0,"o":"m 569 -25 l 154 1057 l -4 1008 l 413 -74 z "},"]":{"ha":411,"x_min":0,"x_max":0,"o":"m 28 -217 l 319 -217 l 319 1017 l 28 1017 l 28 892 l 153 892 l 153 -92 l 28 -92 z "},"^":{"ha":925,"x_min":0,"x_max":0,"o":"m 111 476 l 307 476 l 463 807 l 617 476 l 814 476 l 564 983 l 361 983 z "},"_":{"ha":694,"x_min":0,"x_max":0,"o":"m 694 -174 l 694 -104 l 0 -104 l 0 -174 z "},"‘":{"ha":411,"x_min":0,"x_max":0,"o":"m 54 592 l 254 592 l 357 983 l 179 983 z "},"a":{"ha":746,"x_min":0,"x_max":0,"o":"m 497 0 l 689 0 l 689 343 b 381 692 689 568 624 692 b 83 583 271 692 160 656 l 194 469 b 364 550 239 519 296 550 b 497 429 436 550 497 503 b 40 192 324 429 40 425 b 281 -17 40 56 154 -17 b 494 85 365 -17 449 13 l 497 85 z m 497 296 l 497 251 b 339 125 497 168 421 125 b 240 199 293 125 240 149 b 446 296 240 290 382 296 z "},"b":{"ha":875,"x_min":0,"x_max":0,"o":"m 93 0 l 285 0 l 285 89 l 288 89 b 494 -17 319 40 400 -17 b 826 332 694 -17 826 128 b 518 692 826 519 710 692 b 304 603 432 692 351 668 l 301 603 l 301 1050 l 93 1050 z m 285 338 b 451 508 285 439 347 508 b 618 338 556 508 618 439 b 451 167 618 236 556 167 b 285 338 347 167 285 236 z "},"c":{"ha":669,"x_min":0,"x_max":0,"o":"m 668 601 b 428 692 603 668 507 692 b 53 338 219 692 53 553 b 428 -17 53 122 219 -17 b 668 74 507 -17 603 7 l 531 218 b 428 167 507 190 474 167 b 261 338 324 167 261 236 b 428 508 261 439 324 508 b 531 457 471 508 510 486 z "},"d":{"ha":875,"x_min":0,"x_max":0,"o":"m 782 1050 l 574 1050 l 574 603 l 571 603 b 357 692 524 668 443 692 b 49 332 165 692 49 519 b 381 -17 49 128 181 -17 b 588 89 475 -17 556 40 l 590 89 l 590 0 l 782 0 z m 590 338 b 424 167 590 236 528 167 b 257 338 319 167 257 236 b 424 508 257 439 319 508 b 590 338 528 508 590 439 z "},"e":{"ha":797,"x_min":0,"x_max":0,"o":"m 567 224 b 418 142 532 176 486 142 b 261 272 338 142 278 193 l 744 272 l 744 338 b 428 692 744 553 622 692 b 53 338 219 692 53 553 b 428 -17 53 122 219 -17 b 713 117 536 -17 646 32 z m 261 414 b 408 542 267 479 317 542 b 536 414 483 542 538 483 z "},"f":{"ha":514,"x_min":0,"x_max":0,"o":"m 146 0 l 354 0 l 354 508 l 508 508 l 508 675 l 354 675 l 354 782 b 454 892 354 871 388 892 b 522 878 479 892 499 886 l 532 1054 b 410 1067 493 1064 451 1067 b 146 794 183 1067 146 942 l 146 675 l 8 675 l 8 508 l 146 508 z "},"g":{"ha":875,"x_min":0,"x_max":0,"o":"m 782 675 l 590 675 l 590 586 l 588 586 b 357 692 556 635 475 692 b 49 340 165 692 49 519 b 381 -8 49 136 181 -8 b 571 81 443 -8 524 15 l 574 81 l 574 15 b 388 -150 574 -81 514 -150 b 168 -62 303 -150 232 -117 l 53 -235 b 392 -333 150 -312 272 -333 b 782 57 653 -333 782 -197 z m 257 342 b 424 508 257 429 329 508 b 590 342 518 508 590 429 b 424 175 590 254 518 175 b 257 342 329 175 257 254 z "},"h":{"ha":797,"x_min":0,"x_max":0,"o":"m 74 1050 l 74 0 l 282 0 l 282 336 b 407 508 282 424 299 508 b 515 331 514 508 515 408 l 515 0 l 724 0 l 724 372 b 474 692 724 553 685 692 b 285 583 372 692 304 636 l 282 583 l 282 1050 z "},"i":{"ha":361,"x_min":0,"x_max":0,"o":"m 76 0 l 285 0 l 285 675 l 76 675 z m 60 888 b 181 767 60 821 114 767 b 301 888 247 767 301 821 b 181 1008 301 954 247 1008 b 60 888 114 1008 60 954 z "},"j":{"ha":361,"x_min":0,"x_max":0,"o":"m 285 675 l 76 675 l 76 -14 b 3 -150 76 -65 75 -150 b -51 -137 -15 -150 -35 -146 l -62 -322 b 35 -333 -32 -332 3 -333 b 285 -50 225 -333 285 -222 z m 60 888 b 181 767 60 821 114 767 b 301 888 247 767 301 821 b 181 1008 301 954 247 1008 b 60 888 114 1008 60 954 z "},"k":{"ha":772,"x_min":0,"x_max":0,"o":"m 74 0 l 282 0 l 282 342 l 285 342 l 513 0 l 775 0 l 500 371 l 768 675 l 513 675 l 282 408 l 282 1050 l 74 1050 z "},"l":{"ha":361,"x_min":0,"x_max":0,"o":"m 76 0 l 285 0 l 285 1050 l 76 1050 z "},"m":{"ha":1208,"x_min":0,"x_max":0,"o":"m 74 0 l 282 0 l 282 336 b 407 508 282 424 299 508 b 500 357 503 508 500 407 l 500 0 l 708 0 l 708 357 b 835 508 708 440 739 508 b 926 393 903 508 926 456 l 926 0 l 1135 0 l 1135 399 b 896 692 1135 563 1079 692 b 682 571 796 692 731 657 b 474 692 646 653 568 692 b 276 583 372 692 304 636 l 274 583 l 274 675 l 74 675 z "},"n":{"ha":797,"x_min":0,"x_max":0,"o":"m 74 0 l 282 0 l 282 336 b 407 508 282 424 299 508 b 515 331 514 508 515 408 l 515 0 l 724 0 l 724 372 b 474 692 724 553 685 692 b 276 583 372 692 304 636 l 274 583 l 274 675 l 74 675 z "},"o":{"ha":847,"x_min":0,"x_max":0,"o":"m 49 338 b 424 -17 49 122 215 -17 b 799 338 632 -17 799 122 b 424 692 799 553 632 692 b 49 338 215 692 49 553 z m 257 338 b 424 508 257 439 319 508 b 590 338 528 508 590 439 b 424 167 590 236 528 167 b 257 338 319 167 257 236 z "},"p":{"ha":875,"x_min":0,"x_max":0,"o":"m 93 -317 l 301 -317 l 301 72 l 304 72 b 518 -17 351 7 432 -17 b 826 343 710 -17 826 156 b 494 692 826 547 694 692 b 288 586 400 692 319 635 l 285 586 l 285 675 l 93 675 z m 285 338 b 451 508 285 439 347 508 b 618 338 556 508 618 439 b 451 167 618 236 556 167 b 285 338 347 167 285 236 z "},"q":{"ha":875,"x_min":0,"x_max":0,"o":"m 782 675 l 590 675 l 590 586 l 588 586 b 381 692 556 635 475 692 b 49 343 181 692 49 547 b 357 -17 49 156 165 -17 b 571 72 443 -17 524 7 l 574 72 l 574 -317 l 782 -317 z m 590 338 b 424 167 590 236 528 167 b 257 338 319 167 257 236 b 424 508 257 439 319 508 b 590 338 528 508 590 439 z "},"r":{"ha":565,"x_min":0,"x_max":0,"o":"m 74 0 l 282 0 l 282 282 b 460 508 282 417 301 508 b 549 494 490 508 519 503 l 549 685 b 479 692 529 690 503 692 b 285 567 388 692 329 649 l 282 567 l 282 675 l 74 675 z "},"s":{"ha":643,"x_min":0,"x_max":0,"o":"m 583 603 b 333 692 521 669 422 692 b 50 464 192 692 50 622 b 401 190 50 207 401 299 b 307 142 401 154 354 142 b 160 215 244 142 199 168 l 33 75 b 299 -17 100 7 204 -17 b 610 206 443 -17 610 33 b 258 478 610 463 258 378 b 335 533 258 518 300 533 b 456 476 385 533 425 514 z "},"t":{"ha":565,"x_min":0,"x_max":0,"o":"m 533 675 l 350 675 l 350 875 l 142 875 l 142 675 l 8 675 l 8 508 l 142 508 l 142 188 b 388 -17 142 40 249 -17 b 533 4 436 -17 488 -12 l 533 178 b 449 158 515 161 471 158 b 350 283 358 158 350 211 l 350 508 l 533 508 z "},"u":{"ha":797,"x_min":0,"x_max":0,"o":"m 724 675 l 515 675 l 515 339 b 390 167 515 251 499 167 b 282 344 283 167 282 267 l 282 675 l 74 675 l 74 303 b 324 -17 74 122 113 -17 b 521 92 425 -17 493 39 l 524 92 l 524 0 l 724 0 z "},"v":{"ha":772,"x_min":0,"x_max":0,"o":"m 282 0 l 503 0 l 769 675 l 560 675 l 401 217 l 399 217 l 228 675 l 3 675 z "},"w":{"ha":1157,"x_min":0,"x_max":0,"o":"m 240 0 l 450 0 l 575 449 l 578 449 l 718 0 l 924 0 l 1164 675 l 953 675 l 826 251 l 824 251 l 699 675 l 471 675 l 356 251 l 353 251 l 215 675 l -7 675 z "},"x":{"ha":772,"x_min":0,"x_max":0,"o":"m -11 0 l 232 0 l 390 225 l 538 0 l 783 0 l 524 361 l 743 675 l 511 675 l 396 492 l 276 675 l 31 675 l 256 361 z "},"y":{"ha":772,"x_min":0,"x_max":0,"o":"m 768 675 l 554 675 l 406 229 l 403 229 l 229 675 l 4 675 l 300 -6 l 285 -44 b 146 -158 256 -118 240 -158 b 49 -137 111 -158 81 -151 l 21 -308 b 176 -333 71 -325 124 -333 b 463 -110 375 -333 407 -253 z "},"z":{"ha":694,"x_min":0,"x_max":0,"o":"m 47 0 l 647 0 l 647 167 l 272 167 l 639 475 l 639 675 l 56 675 l 56 508 l 397 508 l 47 208 z "},"{":{"ha":514,"x_min":0,"x_max":0,"o":"m 494 -58 l 426 -58 b 336 31 342 -58 336 -7 l 336 256 b 197 399 335 385 256 394 l 197 401 b 336 546 256 407 335 417 l 336 769 b 426 858 336 807 342 858 l 494 858 l 494 1017 l 349 1017 b 169 815 246 1017 169 960 l 169 575 b 19 479 169 489 54 479 l 19 321 b 169 225 54 321 169 311 l 169 -14 b 349 -217 169 -158 250 -217 l 494 -217 z "},"|":{"ha":308,"x_min":0,"x_max":0,"o":"m 67 1042 l 67 -347 l 242 -347 l 242 1042 z "},"}":{"ha":514,"x_min":0,"x_max":0,"o":"m 19 858 l 88 858 b 178 769 172 858 178 807 l 178 544 b 317 401 179 415 258 406 l 317 399 b 178 254 258 393 179 383 l 178 31 b 88 -58 178 -7 172 -58 l 19 -58 l 19 -217 l 165 -217 b 344 -15 268 -217 344 -160 l 344 225 b 494 321 344 311 456 321 l 494 479 b 344 575 456 479 344 489 l 344 814 b 169 1017 344 958 264 1017 l 19 1017 z "},"~":{"ha":925,"x_min":0,"x_max":0,"o":"m 733 556 b 611 461 701 513 667 461 b 469 511 574 461 521 489 b 315 556 417 535 363 556 b 142 436 222 556 172 494 l 192 286 b 314 381 224 329 258 381 b 456 331 351 381 404 353 b 610 286 508 307 563 286 b 783 406 703 286 753 347 z "},"¡":{"ha":617,"x_min":0,"x_max":0,"o":"m 204 -308 l 413 -308 l 413 350 l 204 350 z m 436 556 b 308 683 436 626 379 683 b 181 556 238 683 181 626 b 308 428 181 485 238 428 b 436 556 379 428 436 485 z "},"¢":{"ha":822,"x_min":0,"x_max":0,"o":"m 431 -112 l 514 -112 l 514 -17 b 756 69 578 -17 686 1 l 629 218 b 514 158 571 161 535 158 l 514 517 b 619 464 546 517 583 501 l 753 606 b 514 692 681 667 608 692 l 514 783 l 431 783 l 431 692 b 106 338 233 668 106 535 b 431 -17 106 146 233 -6 z m 431 158 b 306 339 344 185 306 254 b 431 517 306 425 344 500 z "},"£":{"ha":822,"x_min":0,"x_max":0,"o":"m 67 0 l 760 0 l 760 158 l 408 158 l 408 433 l 625 433 l 625 575 l 408 575 l 408 643 b 569 817 408 729 446 817 b 696 757 607 817 658 794 l 835 906 b 544 1000 758 975 649 1000 b 200 674 319 1000 200 839 l 200 575 l 67 575 l 67 433 l 200 433 l 200 158 l 67 158 z "},"⁄":{"ha":232,"x_min":0,"x_max":0,"o":"m -224 15 l -118 -44 l 456 963 l 339 1028 z "},"¥":{"ha":822,"x_min":0,"x_max":0,"o":"m 303 0 l 519 0 l 519 219 l 754 219 l 754 353 l 519 353 l 519 419 l 536 447 l 754 447 l 754 581 l 615 581 l 872 983 l 619 983 l 411 617 l 203 983 l -50 983 l 207 581 l 68 581 l 68 447 l 286 447 l 303 419 l 303 353 l 68 353 l 68 219 l 303 219 z "},"ƒ":{"ha":822,"x_min":0,"x_max":0,"o":"m 689 603 l 514 603 l 535 701 b 644 817 551 782 578 817 b 717 801 669 817 694 811 l 790 958 b 610 1000 731 986 675 1000 b 335 729 439 1000 375 935 l 310 603 l 124 603 l 124 461 l 282 461 l 213 122 b 108 -10 193 26 167 -10 b 44 6 86 -10 64 -6 l -28 -160 b 126 -193 19 -181 75 -193 b 406 56 300 -193 375 -96 l 486 461 l 689 461 z "},"§":{"ha":822,"x_min":0,"x_max":0,"o":"m 718 857 b 407 1008 661 974 525 1008 b 108 772 268 1008 108 935 b 196 613 108 706 142 649 b 75 407 119 565 75 500 b 493 29 75 139 493 160 b 382 -43 493 -28 426 -43 b 231 53 319 -43 247 -14 l 53 -35 b 376 -210 115 -168 239 -210 b 718 44 526 -210 718 -137 b 642 210 718 108 690 171 b 758 390 708 243 758 314 b 325 768 758 643 325 632 b 415 842 325 818 371 842 b 543 757 471 842 524 810 z m 378 332 b 267 446 326 356 267 379 b 315 528 267 482 283 510 l 476 451 b 567 351 518 433 567 404 b 519 267 567 315 550 285 z "},"¤":{"ha":822,"x_min":0,"x_max":0,"o":"m 50 213 l 133 131 l 201 197 b 411 131 260 156 332 131 b 621 197 490 131 563 156 l 689 131 l 772 213 l 704 281 b 772 492 749 342 772 413 b 704 703 772 571 749 642 l 772 771 l 689 853 l 621 786 b 411 853 563 828 490 853 b 201 786 332 853 260 828 l 133 853 l 50 771 l 118 703 b 50 492 75 643 50 571 b 118 281 50 413 75 340 z m 233 492 b 411 678 233 596 313 678 b 589 492 510 678 589 596 b 411 306 589 388 510 306 b 233 492 313 306 233 388 z "},"'":{"ha":411,"x_min":0,"x_max":0,"o":"m 118 592 l 293 592 l 293 983 l 118 983 z "},"“":{"ha":722,"x_min":0,"x_max":0,"o":"m 61 592 l 261 592 l 364 983 l 186 983 z m 358 592 l 558 592 l 661 983 l 483 983 z "},"«":{"ha":747,"x_min":0,"x_max":0,"o":"m 372 586 l 246 671 l 25 346 l 246 21 l 372 106 l 211 346 z m 708 586 l 582 671 l 361 346 l 582 21 l 708 106 l 547 346 z "},"‹":{"ha":411,"x_min":0,"x_max":0,"o":"m 372 586 l 246 671 l 25 346 l 246 21 l 372 106 l 211 346 z "},"›":{"ha":411,"x_min":0,"x_max":0,"o":"m 39 106 l 165 21 l 386 346 l 165 671 l 39 586 l 200 346 z "},"ﬁ":{"ha":875,"x_min":0,"x_max":0,"o":"m 590 0 l 799 0 l 799 675 l 590 675 z m 574 888 b 694 767 574 821 628 767 b 815 888 761 767 815 821 b 694 1008 815 954 761 1008 b 574 888 628 1008 574 954 z m 146 0 l 354 0 l 354 508 l 508 508 l 508 675 l 354 675 l 354 782 b 454 892 354 871 388 892 b 522 878 479 892 499 886 l 532 1054 b 410 1067 493 1064 451 1067 b 146 794 183 1067 146 942 l 146 675 l 8 675 l 8 508 l 146 508 z "},"ﬂ":{"ha":875,"x_min":0,"x_max":0,"o":"m 590 0 l 799 0 l 799 1050 l 590 1050 z m 146 0 l 354 0 l 354 508 l 508 508 l 508 675 l 354 675 l 354 782 b 454 892 354 871 388 892 b 522 878 479 892 499 886 l 532 1054 b 410 1067 493 1064 451 1067 b 146 794 183 1067 146 942 l 146 675 l 8 675 l 8 508 l 146 508 z "},"–":{"ha":694,"x_min":0,"x_max":0,"o":"m 0 263 l 694 263 l 694 429 l 0 429 z "},"†":{"ha":822,"x_min":0,"x_max":0,"o":"m 311 -185 l 503 -185 l 503 517 l 775 517 l 775 692 l 503 692 l 503 983 l 311 983 l 311 692 l 47 692 l 47 517 l 311 517 z "},"‡":{"ha":822,"x_min":0,"x_max":0,"o":"m 315 -185 l 507 -185 l 507 65 l 775 65 l 775 232 l 507 232 l 507 567 l 775 567 l 775 733 l 507 733 l 507 983 l 315 983 l 315 733 l 47 733 l 47 567 l 315 567 l 315 232 l 47 232 l 47 65 l 315 65 z "},"·":{"ha":411,"x_min":0,"x_max":0,"o":"m 78 393 b 206 265 78 322 135 265 b 333 393 276 265 333 322 b 206 521 333 464 276 521 b 78 393 135 521 78 464 z "},"¶":{"ha":861,"x_min":0,"x_max":0,"o":"m 328 -185 l 478 -185 l 478 850 l 629 850 l 629 -185 l 779 -185 l 779 983 l 360 983 b 18 736 167 983 18 936 b 328 499 18 588 126 499 z "},"•":{"ha":694,"x_min":0,"x_max":0,"o":"m 101 492 b 347 246 101 356 211 246 b 593 492 483 246 593 356 b 347 738 593 628 483 738 b 101 492 211 738 101 628 z "},"‚":{"ha":411,"x_min":0,"x_max":0,"o":"m 357 217 l 157 217 l 54 -175 l 232 -175 z "},"„":{"ha":722,"x_min":0,"x_max":0,"o":"m 661 217 l 461 217 l 358 -175 l 536 -175 z m 364 217 l 164 217 l 61 -175 l 239 -175 z "},"”":{"ha":722,"x_min":0,"x_max":0,"o":"m 661 983 l 461 983 l 358 592 l 536 592 z m 364 983 l 164 983 l 61 592 l 239 592 z "},"»":{"ha":747,"x_min":0,"x_max":0,"o":"m 375 106 l 501 21 l 722 346 l 501 671 l 375 586 l 536 346 z m 39 106 l 165 21 l 386 346 l 165 671 l 39 586 l 200 346 z "},"…":{"ha":1389,"x_min":0,"x_max":0,"o":"m 104 119 b 232 -8 104 49 161 -8 b 360 119 303 -8 360 49 b 232 247 360 190 303 247 b 104 119 161 247 104 190 z m 567 119 b 694 -8 567 49 624 -8 b 822 119 765 -8 822 49 b 694 247 822 190 765 247 b 567 119 624 247 567 190 z m 1029 119 b 1157 -8 1029 49 1086 -8 b 1285 119 1228 -8 1285 49 b 1157 247 1285 190 1228 247 b 1029 119 1086 247 1029 190 z "},"‰":{"ha":1621,"x_min":0,"x_max":0,"o":"m 549 229 b 793 -17 549 94 657 -17 b 1038 229 928 -17 1038 94 b 793 474 1038 364 928 474 b 549 229 657 474 549 364 z m 682 229 b 793 340 682 290 732 340 b 904 229 854 340 904 290 b 793 117 904 168 854 117 b 682 229 732 117 682 168 z m 1086 229 b 1331 -17 1086 94 1196 -17 b 1576 229 1465 -17 1576 94 b 1331 474 1576 364 1465 474 b 1086 229 1196 474 1086 364 z m 1219 229 b 1331 340 1219 290 1269 340 b 1443 229 1392 340 1443 290 b 1331 117 1443 168 1392 117 b 1219 229 1269 117 1219 168 z m 44 756 b 289 510 44 621 153 510 b 535 756 424 510 535 621 b 289 1000 535 890 424 1000 b 44 756 153 1000 44 890 z m 178 756 b 289 867 178 817 228 867 b 401 756 350 867 401 817 b 289 643 401 694 350 643 b 178 756 228 643 178 694 z m 204 15 l 310 -44 l 883 963 l 767 1028 z "},"¿":{"ha":772,"x_min":0,"x_max":0,"o":"m 472 350 l 264 350 l 264 310 b 210 214 264 279 253 247 b 38 -60 78 110 38 46 b 350 -333 38 -239 181 -333 b 697 -32 543 -333 678 -228 l 483 -18 b 346 -142 478 -86 432 -142 b 246 -44 289 -142 246 -106 b 424 164 246 19 321 65 b 472 289 458 197 472 233 z m 496 556 b 368 683 496 626 439 683 b 240 556 297 683 240 626 b 368 428 240 485 297 428 b 496 556 439 428 496 485 z "},"`":{"ha":361,"x_min":0,"x_max":0,"o":"m 182 983 l -101 983 l 139 783 l 322 783 z "},"´":{"ha":361,"x_min":0,"x_max":0,"o":"m 42 783 l 225 783 l 465 983 l 182 983 z "},"ˆ":{"ha":361,"x_min":0,"x_max":0,"o":"m 457 783 l 296 983 l 69 983 l -96 783 l 92 783 l 178 892 l 265 783 z "},"˜":{"ha":361,"x_min":0,"x_max":0,"o":"m 18 792 b 76 850 26 818 44 850 b 164 821 104 850 132 836 b 272 792 196 807 232 792 b 453 983 389 792 435 878 l 344 983 b 283 933 332 956 315 933 b 206 954 256 933 231 944 b 85 983 165 971 131 983 b -92 792 -19 983 -76 885 z "},"¯":{"ha":361,"x_min":0,"x_max":0,"o":"m 417 954 l -56 954 l -56 821 l 417 821 z "},"˘":{"ha":361,"x_min":0,"x_max":0,"o":"m -75 983 b 181 783 -67 838 49 783 b 436 983 313 783 421 842 l 326 983 b 181 917 306 922 253 917 b 36 983 119 917 49 929 z "},"˙":{"ha":361,"x_min":0,"x_max":0,"o":"m 179 775 b 297 894 247 775 297 828 b 176 1008 297 961 240 1008 b 64 894 115 1008 64 954 b 179 775 64 831 114 775 z "},"¨":{"ha":361,"x_min":0,"x_max":0,"o":"m 35 775 b 153 894 103 775 153 828 b 32 1008 153 961 96 1008 b -81 894 -29 1008 -81 954 b 35 775 -81 831 -31 775 z m 324 775 b 442 894 392 775 442 828 b 321 1008 442 961 385 1008 b 208 894 260 1008 208 954 b 324 775 208 831 258 775 z "},"˚":{"ha":361,"x_min":0,"x_max":0,"o":"m 181 757 b 335 911 265 757 335 826 b 181 1065 335 996 265 1065 b 26 911 96 1065 26 996 b 181 757 26 826 96 757 z m 110 911 b 181 982 110 950 142 982 b 251 911 219 982 251 950 b 181 840 251 872 219 840 b 110 911 142 840 110 872 z "},"¸":{"ha":361,"x_min":0,"x_max":0,"o":"m 233 0 l 140 0 l 54 -129 l 99 -169 b 149 -158 115 -162 131 -158 b 218 -206 176 -158 218 -172 b 126 -250 218 -242 169 -250 b 19 -226 79 -250 42 -235 l -15 -292 b 158 -333 33 -315 103 -333 b 351 -199 229 -333 351 -300 b 176 -83 351 -96 258 -83 z "},"˝":{"ha":361,"x_min":0,"x_max":0,"o":"m -142 783 l 42 783 l 282 983 l -1 983 z m 225 783 l 408 783 l 649 983 l 365 983 z "},"˛":{"ha":361,"x_min":0,"x_max":0,"o":"m 246 -201 b 171 -233 226 -218 197 -233 b 113 -169 138 -233 113 -200 b 228 17 113 -107 182 -22 l 133 17 b -12 -204 72 -31 -12 -124 b 133 -333 -12 -286 57 -333 b 285 -275 193 -333 239 -310 z "},"ˇ":{"ha":361,"x_min":0,"x_max":0,"o":"m -101 983 l 60 783 l 286 783 l 451 983 l 264 983 l 178 875 l 90 983 z "},"—":{"ha":1389,"x_min":0,"x_max":0,"o":"m 0 263 l 1389 263 l 1389 429 l 0 429 z "},"Æ":{"ha":1440,"x_min":0,"x_max":0,"o":"m 742 0 l 1367 0 l 1367 200 l 958 200 l 958 400 l 1317 400 l 1317 600 l 958 600 l 958 783 l 1350 783 l 1350 983 l 603 983 l -21 0 l 244 0 l 376 208 l 742 208 z m 742 392 l 469 392 l 718 783 l 742 783 z "},"ª":{"ha":485,"x_min":0,"x_max":0,"o":"m 319 599 l 453 599 l 453 804 b 253 1008 453 933 411 1008 b 60 943 182 1008 110 986 l 132 875 b 242 925 161 904 197 925 b 319 860 289 925 319 893 b 32 714 215 860 32 854 b 188 590 32 633 106 590 b 317 650 243 590 297 607 l 319 650 z m 328 750 b 233 682 328 718 288 682 b 174 719 204 682 174 689 b 303 776 174 772 263 776 l 328 776 z "},"Ł":{"ha":746,"x_min":0,"x_max":0,"o":"m 108 0 l 726 0 l 726 200 l 325 200 l 325 414 l 617 669 l 617 850 l 325 593 l 325 983 l 108 983 l 108 406 l 25 333 l 25 150 l 108 222 z "},"Ø":{"ha":1156,"x_min":0,"x_max":0,"o":"m 47 -4 l 125 -71 l 254 69 b 578 -25 339 10 451 -25 b 1108 492 885 -25 1108 176 b 972 854 1108 642 1058 765 l 1097 990 l 1021 1058 l 893 919 b 578 1008 806 978 699 1008 b 47 492 271 1008 47 807 b 176 138 47 347 94 226 z m 326 301 b 272 492 292 354 272 419 b 578 808 272 675 393 808 b 749 761 643 808 701 792 z m 822 690 b 883 492 861 639 883 569 b 578 175 883 308 763 175 b 399 228 507 175 446 194 z "},"Œ":{"ha":1414,"x_min":0,"x_max":0,"o":"m 924 783 l 1324 783 l 1324 983 l 592 983 b 47 492 288 983 47 811 b 603 0 47 147 339 0 l 1340 0 l 1340 200 l 924 200 l 924 400 l 1290 400 l 1290 600 l 924 600 z m 707 200 l 636 200 b 272 492 422 200 272 297 b 636 783 272 686 422 783 l 707 783 z "},"º":{"ha":551,"x_min":0,"x_max":0,"o":"m 32 799 b 275 590 32 667 139 590 b 519 799 411 590 519 667 b 275 1008 519 925 411 1008 b 32 799 139 1008 32 925 z m 174 799 b 275 892 174 850 213 892 b 378 799 338 892 378 850 b 275 707 378 749 338 707 b 174 799 213 707 175 749 z "},"æ":{"ha":1183,"x_min":0,"x_max":0,"o":"m 194 469 b 364 550 239 519 296 550 b 485 414 439 550 485 494 l 460 414 b 40 192 308 414 40 408 b 281 -17 40 56 154 -17 b 557 93 399 -17 499 13 b 826 -17 615 10 717 -17 b 1111 117 935 -17 1044 32 l 965 224 b 817 142 931 176 885 142 b 660 272 736 142 676 193 l 1143 272 l 1143 338 b 826 692 1143 553 1021 692 b 600 610 739 692 656 664 b 381 692 542 667 460 692 b 83 583 271 692 160 656 z m 240 193 b 460 272 240 272 396 272 l 485 272 b 347 125 485 183 446 125 b 240 193 301 125 240 132 z m 660 414 b 807 542 665 479 715 542 b 935 414 882 542 936 483 z "},"ı":{"ha":361,"x_min":0,"x_max":0,"o":"m 76 0 l 285 0 l 285 675 l 76 675 z "},"ł":{"ha":361,"x_min":0,"x_max":0,"o":"m 76 0 l 285 0 l 285 553 l 368 638 l 368 817 l 285 732 l 285 1050 l 76 1050 l 76 524 l -7 439 l -7 260 l 76 344 z "},"ø":{"ha":847,"x_min":0,"x_max":0,"o":"m 36 8 l 101 -54 l 203 47 b 424 -17 265 6 342 -17 b 799 338 632 -17 799 122 b 719 563 799 426 769 504 l 811 654 l 746 717 l 653 624 b 424 692 590 667 511 692 b 49 338 215 692 49 553 b 133 106 49 243 81 164 z m 278 250 b 257 338 264 275 257 304 b 424 508 257 439 319 508 b 514 486 460 508 490 500 z m 574 417 b 590 338 585 393 590 367 b 424 167 590 236 528 167 b 342 186 393 167 365 174 z "},"œ":{"ha":1311,"x_min":0,"x_max":0,"o":"m 1081 224 b 932 142 1046 176 1000 142 b 775 272 851 142 792 193 l 1258 272 l 1258 338 b 942 692 1258 553 1136 692 b 678 590 821 692 738 653 b 425 692 611 658 524 692 b 49 338 215 692 49 553 b 425 -17 49 122 215 -17 b 678 79 518 -17 608 7 b 942 -17 742 10 826 -17 b 1226 117 1050 -17 1160 32 z m 425 508 b 592 338 529 508 592 439 b 425 167 592 236 529 167 b 257 338 319 167 257 236 b 425 508 257 439 319 508 z m 775 414 b 922 542 781 479 831 542 b 1050 414 997 542 1051 483 z "},"ß":{"ha":875,"x_min":0,"x_max":0,"o":"m 74 0 l 282 0 l 282 747 b 424 883 282 831 339 883 b 550 775 489 883 550 844 b 424 665 550 703 493 665 l 407 665 l 407 490 l 435 490 b 625 321 544 490 625 439 b 433 158 625 210 536 158 b 365 169 410 158 388 163 l 365 0 b 494 -17 408 -11 450 -17 b 825 301 686 -17 825 104 b 608 588 825 444 754 558 l 608 590 b 750 813 707 631 750 706 b 429 1067 750 989 586 1067 b 74 713 190 1067 74 947 z "},"¹":{"ha":535,"x_min":0,"x_max":0,"o":"m 254 401 l 404 401 l 404 992 l 271 992 l 50 829 l 131 738 l 254 842 z "},"¬":{"ha":925,"x_min":0,"x_max":0,"o":"m 668 197 l 843 197 l 843 642 l 82 642 l 82 467 l 668 467 z "},"µ":{"ha":797,"x_min":0,"x_max":0,"o":"m 724 675 l 515 675 l 515 339 b 390 167 515 251 499 167 b 282 344 283 167 282 267 l 282 675 l 74 675 l 74 -317 l 282 -317 l 282 -12 b 324 -17 294 -15 308 -17 b 521 92 425 -17 493 39 l 524 92 l 524 0 l 724 0 z "},"™":{"ha":1389,"x_min":0,"x_max":0,"o":"m 221 411 l 371 411 l 371 850 l 536 850 l 536 983 l 56 983 l 56 850 l 221 850 z m 658 411 l 808 411 l 808 783 l 811 783 l 947 411 l 1044 411 l 1181 783 l 1183 783 l 1183 411 l 1333 411 l 1333 983 l 1132 983 l 996 611 l 860 983 l 658 983 z "},"Ð":{"ha":1054,"x_min":0,"x_max":0,"o":"m 317 783 l 444 783 b 782 500 628 783 782 693 b 429 200 782 276 631 200 l 317 200 l 317 442 l 592 442 l 592 583 l 317 583 z m 100 0 l 454 0 b 1007 489 747 0 1007 171 b 425 983 1007 849 742 983 l 100 983 l 100 583 l 17 583 l 17 442 l 100 442 z "},"½":{"ha":1235,"x_min":0,"x_max":0,"o":"m 215 401 l 365 401 l 365 992 l 232 992 l 11 829 l 92 738 l 215 842 z m 756 0 l 1224 0 l 1224 117 l 944 117 l 944 119 l 1139 269 b 1224 432 1193 311 1224 336 b 999 599 1224 539 1128 599 b 758 407 865 599 768 539 l 900 399 b 992 474 903 440 939 474 b 1074 419 1035 474 1074 458 b 1014 343 1074 392 1040 365 l 756 124 z m 263 15 l 368 -44 l 942 963 l 825 1028 z "},"±":{"ha":925,"x_min":0,"x_max":0,"o":"m 82 449 l 375 449 l 375 271 l 550 271 l 550 449 l 843 449 l 843 624 l 550 624 l 550 801 l 375 801 l 375 624 l 82 624 z m 82 40 l 843 40 l 843 215 l 82 215 z "},"Þ":{"ha":875,"x_min":0,"x_max":0,"o":"m 100 0 l 317 0 l 317 208 l 475 208 b 839 510 682 208 839 279 b 465 808 839 743 669 808 l 317 808 l 317 983 l 100 983 z m 317 625 l 428 625 b 614 510 511 625 614 611 b 461 392 614 418 538 392 l 317 392 z "},"¼":{"ha":1235,"x_min":0,"x_max":0,"o":"m 994 0 l 1144 0 l 1144 118 l 1224 118 l 1224 235 l 1144 235 l 1144 590 l 981 590 l 704 226 l 704 118 l 994 118 z m 994 235 l 854 235 l 992 424 l 994 424 z m 215 401 l 365 401 l 365 992 l 232 992 l 11 829 l 92 738 l 215 842 z m 263 15 l 368 -44 l 942 963 l 825 1028 z "},"÷":{"ha":925,"x_min":0,"x_max":0,"o":"m 82 333 l 843 333 l 843 508 l 82 508 z m 343 158 b 463 39 343 93 397 39 b 582 158 528 39 582 93 b 463 278 582 224 528 278 b 343 158 397 278 343 224 z m 343 683 b 463 564 343 618 397 564 b 582 683 528 564 582 618 b 463 803 582 749 528 803 b 343 683 397 803 343 749 z "},"¦":{"ha":308,"x_min":0,"x_max":0,"o":"m 67 938 l 67 451 l 242 451 l 242 938 z m 67 243 l 67 -243 l 242 -243 l 242 243 z "},"°":{"ha":556,"x_min":0,"x_max":0,"o":"m 278 639 b 156 761 210 639 156 693 b 278 883 156 829 210 883 b 400 761 346 883 400 829 b 278 639 400 693 346 639 z m 278 522 b 517 761 410 522 517 629 b 278 1000 517 893 410 1000 b 39 761 146 1000 39 893 b 278 522 39 629 146 522 z "},"þ":{"ha":875,"x_min":0,"x_max":0,"o":"m 93 -317 l 301 -317 l 301 72 l 304 72 b 518 -17 351 7 432 -17 b 826 343 710 -17 826 156 b 494 692 826 547 694 692 b 304 603 418 692 336 657 l 301 603 l 301 1050 l 93 1050 z m 285 338 b 451 508 285 439 347 508 b 618 338 556 508 618 439 b 451 167 618 236 556 167 b 285 338 347 167 285 236 z "},"¾":{"ha":1235,"x_min":0,"x_max":0,"o":"m 1000 0 l 1150 0 l 1150 118 l 1229 118 l 1229 235 l 1150 235 l 1150 590 l 986 590 l 710 226 l 710 118 l 1000 118 z m 1000 235 l 860 235 l 997 424 l 1000 424 z m 181 650 l 215 650 b 343 585 279 650 343 649 b 249 518 343 536 301 518 b 157 588 196 518 167 544 l 6 557 b 249 393 33 439 128 393 b 493 571 381 393 493 451 b 365 710 493 639 446 700 l 365 713 b 481 842 440 725 481 776 b 253 1000 481 949 372 1000 b 13 842 139 1000 42 960 l 164 814 b 253 875 174 853 208 875 b 331 829 300 875 331 858 b 228 767 331 776 281 767 l 181 767 z m 296 15 l 401 -44 l 975 963 l 858 1028 z "},"²":{"ha":535,"x_min":0,"x_max":0,"o":"m 33 401 l 501 401 l 501 518 l 222 518 l 222 521 l 417 671 b 501 833 471 713 501 738 b 276 1000 501 940 406 1000 b 36 808 143 1000 46 940 l 178 800 b 269 875 181 842 217 875 b 351 821 313 875 351 860 b 292 744 351 793 318 767 l 33 525 z "},"®":{"ha":1111,"x_min":0,"x_max":0,"o":"m 357 226 l 499 226 l 499 435 l 522 435 l 646 226 l 792 226 l 653 442 b 779 593 715 450 779 483 b 549 768 779 768 607 768 l 357 768 z m 497 660 l 554 660 b 638 601 588 660 638 657 b 554 543 638 544 588 543 l 497 543 z m 39 492 b 556 -25 39 207 271 -25 b 1072 492 840 -25 1072 207 b 556 1008 1072 776 840 1008 b 39 492 271 1008 39 776 z m 181 492 b 556 883 181 707 349 883 b 931 492 763 883 931 707 b 556 100 931 276 763 100 b 181 492 349 100 181 276 z "},"−":{"ha":925,"x_min":0,"x_max":0,"o":"m 82 333 l 843 333 l 843 508 l 82 508 z "},"ð":{"ha":847,"x_min":0,"x_max":0,"o":"m 624 1079 l 465 1013 b 354 1113 432 1047 396 1081 l 185 1015 b 281 933 217 993 263 953 l 131 869 l 231 775 l 378 838 b 532 658 424 797 496 710 l 529 656 b 393 692 492 686 442 692 b 49 338 222 692 49 553 b 424 -17 49 122 215 -17 b 799 394 667 -19 799 143 b 560 915 799 658 647 822 l 731 986 z m 257 338 b 424 508 257 439 319 508 b 590 338 528 508 590 439 b 424 167 590 236 528 167 b 257 338 319 167 257 236 z "},"×":{"ha":925,"x_min":0,"x_max":0,"o":"m 89 660 l 336 421 l 94 169 l 218 50 l 464 296 l 708 51 l 836 181 l 586 421 l 826 671 l 703 790 l 464 549 l 218 792 z "},"³":{"ha":535,"x_min":0,"x_max":0,"o":"m 199 650 l 233 650 b 361 585 297 650 361 649 b 267 518 361 536 319 518 b 175 588 214 518 185 544 l 24 557 b 267 393 51 439 146 393 b 511 571 399 393 511 451 b 383 710 511 639 464 700 l 383 713 b 499 842 458 725 499 776 b 271 1000 499 949 390 1000 b 29 842 157 1000 60 960 l 182 814 b 271 875 192 853 226 875 b 349 829 318 875 349 858 b 246 767 349 776 299 767 l 199 767 z "},"©":{"ha":1111,"x_min":0,"x_max":0,"o":"m 686 417 b 575 324 682 349 633 324 b 443 499 494 324 443 396 b 578 663 443 599 488 663 b 686 582 628 663 674 642 l 817 582 b 567 788 796 721 692 788 b 293 496 389 788 293 667 b 569 199 293 329 394 199 b 817 417 690 199 797 274 z m 39 492 b 556 -25 39 207 271 -25 b 1072 492 840 -25 1072 207 b 556 1008 1072 776 840 1008 b 39 492 271 1008 39 776 z m 181 492 b 556 883 181 707 349 883 b 931 492 763 883 931 707 b 556 100 931 276 763 100 b 181 492 349 100 181 276 z "},"Á":{"ha":1029,"x_min":0,"x_max":0,"o":"m -1 0 l 238 0 l 319 208 l 701 208 l 786 0 l 1031 0 l 603 983 l 424 983 z m 628 392 l 388 392 l 507 697 z m 376 1054 l 560 1054 l 800 1254 l 517 1254 z "},"Â":{"ha":1029,"x_min":0,"x_max":0,"o":"m -1 0 l 238 0 l 319 208 l 701 208 l 786 0 l 1031 0 l 603 983 l 424 983 z m 628 392 l 388 392 l 507 697 z m 792 1054 l 631 1254 l 404 1254 l 239 1054 l 426 1054 l 513 1163 l 600 1054 z "},"Ä":{"ha":1029,"x_min":0,"x_max":0,"o":"m -1 0 l 238 0 l 319 208 l 701 208 l 786 0 l 1031 0 l 603 983 l 424 983 z m 628 392 l 388 392 l 507 697 z m 369 1046 b 488 1165 438 1046 488 1099 b 367 1279 488 1232 431 1279 b 254 1165 306 1279 254 1225 b 369 1046 254 1101 304 1046 z m 658 1046 b 776 1165 726 1046 776 1099 b 656 1279 776 1232 719 1279 b 543 1165 594 1279 543 1225 b 658 1046 543 1101 593 1046 z "},"À":{"ha":1029,"x_min":0,"x_max":0,"o":"m -1 0 l 238 0 l 319 208 l 701 208 l 786 0 l 1031 0 l 603 983 l 424 983 z m 628 392 l 388 392 l 507 697 z m 517 1254 l 233 1254 l 474 1054 l 657 1054 z "},"Å":{"ha":1029,"x_min":0,"x_max":0,"o":"m -1 0 l 238 0 l 319 208 l 701 208 l 786 0 l 1031 0 l 603 983 l 424 983 z m 628 392 l 388 392 l 507 697 z m 515 1015 b 669 1169 600 1015 669 1085 b 515 1324 669 1254 600 1324 b 361 1169 431 1324 361 1254 b 515 1015 361 1085 431 1015 z m 444 1169 b 515 1240 444 1208 476 1240 b 586 1169 554 1240 586 1208 b 515 1099 586 1131 554 1099 b 444 1169 476 1099 444 1131 z "},"Ã":{"ha":1029,"x_min":0,"x_max":0,"o":"m -1 0 l 238 0 l 319 208 l 701 208 l 786 0 l 1031 0 l 603 983 l 424 983 z m 628 392 l 388 392 l 507 697 z m 353 1063 b 411 1121 361 1089 379 1121 b 499 1092 439 1121 467 1107 b 607 1063 531 1078 567 1063 b 788 1254 724 1063 769 1149 l 679 1254 b 618 1204 667 1226 650 1204 b 540 1225 590 1204 565 1215 b 419 1254 500 1242 465 1254 b 243 1063 315 1254 258 1156 z "},"Ç":{"ha":951,"x_min":0,"x_max":0,"o":"m 910 864 b 578 1008 826 971 688 1008 b 47 492 271 1008 47 807 b 464 -15 47 217 217 29 l 389 -129 l 433 -169 b 483 -158 450 -162 465 -158 b 553 -206 511 -158 553 -172 b 461 -250 553 -242 504 -250 b 354 -226 414 -250 376 -235 l 319 -292 b 493 -333 368 -315 438 -333 b 686 -199 564 -333 686 -300 b 511 -83 686 -96 593 -83 l 551 -24 b 578 -25 560 -25 568 -25 b 933 146 713 -25 851 29 l 753 281 b 550 175 708 214 638 175 b 272 492 393 175 272 308 b 557 808 272 675 393 808 b 743 728 638 808 700 779 z "},"É":{"ha":875,"x_min":0,"x_max":0,"o":"m 108 0 l 801 0 l 801 200 l 325 200 l 325 400 l 751 400 l 751 600 l 325 600 l 325 783 l 776 783 l 776 983 l 108 983 z m 299 1054 l 482 1054 l 722 1254 l 439 1254 z "},"Ê":{"ha":875,"x_min":0,"x_max":0,"o":"m 108 0 l 801 0 l 801 200 l 325 200 l 325 400 l 751 400 l 751 600 l 325 600 l 325 783 l 776 783 l 776 983 l 108 983 z m 714 1054 l 553 1254 l 326 1254 l 161 1054 l 349 1054 l 435 1163 l 522 1054 z "},"Ë":{"ha":875,"x_min":0,"x_max":0,"o":"m 108 0 l 801 0 l 801 200 l 325 200 l 325 400 l 751 400 l 751 600 l 325 600 l 325 783 l 776 783 l 776 983 l 108 983 z m 292 1046 b 410 1165 360 1046 410 1099 b 289 1279 410 1232 353 1279 b 176 1165 228 1279 176 1225 b 292 1046 176 1101 226 1046 z m 581 1046 b 699 1165 649 1046 699 1099 b 578 1279 699 1232 642 1279 b 465 1165 517 1279 465 1225 b 581 1046 465 1101 515 1046 z "},"È":{"ha":875,"x_min":0,"x_max":0,"o":"m 108 0 l 801 0 l 801 200 l 325 200 l 325 400 l 751 400 l 751 600 l 325 600 l 325 783 l 776 783 l 776 983 l 108 983 z m 439 1254 l 156 1254 l 396 1054 l 579 1054 z "},"Í":{"ha":411,"x_min":0,"x_max":0,"o":"m 97 0 l 314 0 l 314 983 l 97 983 z m 67 1054 l 250 1054 l 490 1254 l 207 1254 z "},"Î":{"ha":411,"x_min":0,"x_max":0,"o":"m 97 0 l 314 0 l 314 983 l 97 983 z m 482 1054 l 321 1254 l 94 1254 l -71 1054 l 117 1054 l 203 1163 l 290 1054 z "},"Ï":{"ha":411,"x_min":0,"x_max":0,"o":"m 97 0 l 314 0 l 314 983 l 97 983 z m 60 1046 b 178 1165 128 1046 178 1099 b 57 1279 178 1232 121 1279 b -56 1165 -4 1279 -56 1225 b 60 1046 -56 1101 -6 1046 z m 349 1046 b 467 1165 417 1046 467 1099 b 346 1279 467 1232 410 1279 b 233 1165 285 1279 233 1225 b 349 1046 233 1101 283 1046 z "},"Ì":{"ha":411,"x_min":0,"x_max":0,"o":"m 97 0 l 314 0 l 314 983 l 97 983 z m 207 1254 l -76 1254 l 164 1054 l 347 1054 z "},"Ñ":{"ha":1132,"x_min":0,"x_max":0,"o":"m 100 0 l 317 0 l 317 700 l 319 700 l 749 0 l 1032 0 l 1032 983 l 815 983 l 815 300 l 813 300 l 394 983 l 100 983 z m 404 1063 b 463 1121 413 1089 431 1121 b 550 1092 490 1121 518 1107 b 658 1063 582 1078 618 1063 b 839 1254 775 1063 821 1149 l 731 1254 b 669 1204 718 1226 701 1204 b 592 1225 642 1204 617 1215 b 471 1254 551 1242 517 1254 b 294 1063 367 1254 310 1156 z "},"Ó":{"ha":1156,"x_min":0,"x_max":0,"o":"m 47 492 b 578 -25 47 176 271 -25 b 1108 492 885 -25 1108 176 b 578 1008 1108 807 885 1008 b 47 492 271 1008 47 807 z m 272 492 b 578 808 272 675 393 808 b 883 492 763 808 883 675 b 578 175 883 308 763 175 b 272 492 393 175 272 308 z m 439 1054 l 622 1054 l 863 1254 l 579 1254 z "},"Ô":{"ha":1156,"x_min":0,"x_max":0,"o":"m 47 492 b 578 -25 47 176 271 -25 b 1108 492 885 -25 1108 176 b 578 1008 1108 807 885 1008 b 47 492 271 1008 47 807 z m 272 492 b 578 808 272 675 393 808 b 883 492 763 808 883 675 b 578 175 883 308 763 175 b 272 492 393 175 272 308 z m 854 1054 l 693 1254 l 467 1254 l 301 1054 l 489 1054 l 575 1163 l 663 1054 z "},"Ö":{"ha":1156,"x_min":0,"x_max":0,"o":"m 47 492 b 578 -25 47 176 271 -25 b 1108 492 885 -25 1108 176 b 578 1008 1108 807 885 1008 b 47 492 271 1008 47 807 z m 272 492 b 578 808 272 675 393 808 b 883 492 763 808 883 675 b 578 175 883 308 763 175 b 272 492 393 175 272 308 z m 432 1046 b 550 1165 500 1046 550 1099 b 429 1279 550 1232 493 1279 b 317 1165 368 1279 317 1225 b 432 1046 317 1101 367 1046 z m 721 1046 b 839 1165 789 1046 839 1099 b 718 1279 839 1232 782 1279 b 606 1165 657 1279 606 1225 b 721 1046 606 1101 656 1046 z "},"Ò":{"ha":1156,"x_min":0,"x_max":0,"o":"m 47 492 b 578 -25 47 176 271 -25 b 1108 492 885 -25 1108 176 b 578 1008 1108 807 885 1008 b 47 492 271 1008 47 807 z m 272 492 b 578 808 272 675 393 808 b 883 492 763 808 883 675 b 578 175 883 308 763 175 b 272 492 393 175 272 308 z m 579 1254 l 296 1254 l 536 1054 l 719 1054 z "},"Õ":{"ha":1156,"x_min":0,"x_max":0,"o":"m 47 492 b 578 -25 47 176 271 -25 b 1108 492 885 -25 1108 176 b 578 1008 1108 807 885 1008 b 47 492 271 1008 47 807 z m 272 492 b 578 808 272 675 393 808 b 883 492 763 808 883 675 b 578 175 883 308 763 175 b 272 492 393 175 272 308 z m 415 1063 b 474 1121 424 1089 442 1121 b 561 1092 501 1121 529 1107 b 669 1063 593 1078 629 1063 b 850 1254 786 1063 832 1149 l 742 1254 b 681 1204 729 1226 713 1204 b 603 1225 653 1204 628 1215 b 482 1254 563 1242 528 1254 b 306 1063 378 1254 321 1156 z "},"Š":{"ha":797,"x_min":0,"x_max":0,"o":"m 735 906 b 433 1008 651 979 544 1008 b 58 689 240 1008 58 899 b 519 278 58 361 519 458 b 369 175 519 208 440 175 b 181 268 297 175 225 210 l 26 99 b 357 -25 119 13 231 -25 b 736 299 560 -25 736 79 b 283 707 736 643 283 528 b 429 808 283 781 368 808 b 586 743 482 808 551 788 z m 117 1292 l 278 1092 l 504 1092 l 669 1292 l 482 1292 l 396 1183 l 308 1292 z "},"Ú":{"ha":1029,"x_min":0,"x_max":0,"o":"m 929 983 l 713 983 l 713 388 b 515 175 713 267 629 175 b 317 388 400 175 317 267 l 317 983 l 100 983 l 100 379 b 515 -25 100 147 242 -25 b 929 379 788 -25 929 147 z m 376 1054 l 560 1054 l 800 1254 l 517 1254 z "},"Û":{"ha":1029,"x_min":0,"x_max":0,"o":"m 929 983 l 713 983 l 713 388 b 515 175 713 267 629 175 b 317 388 400 175 317 267 l 317 983 l 100 983 l 100 379 b 515 -25 100 147 242 -25 b 929 379 788 -25 929 147 z m 792 1054 l 631 1254 l 404 1254 l 239 1054 l 426 1054 l 513 1163 l 600 1054 z "},"Ü":{"ha":1029,"x_min":0,"x_max":0,"o":"m 929 983 l 713 983 l 713 388 b 515 175 713 267 629 175 b 317 388 400 175 317 267 l 317 983 l 100 983 l 100 379 b 515 -25 100 147 242 -25 b 929 379 788 -25 929 147 z m 369 1046 b 488 1165 438 1046 488 1099 b 367 1279 488 1232 431 1279 b 254 1165 306 1279 254 1225 b 369 1046 254 1101 304 1046 z m 658 1046 b 776 1165 726 1046 776 1099 b 656 1279 776 1232 719 1279 b 543 1165 594 1279 543 1225 b 658 1046 543 1101 593 1046 z "},"Ù":{"ha":1029,"x_min":0,"x_max":0,"o":"m 929 983 l 713 983 l 713 388 b 515 175 713 267 629 175 b 317 388 400 175 317 267 l 317 983 l 100 983 l 100 379 b 515 -25 100 147 242 -25 b 929 379 788 -25 929 147 z m 517 1254 l 233 1254 l 474 1054 l 657 1054 z "},"Ý":{"ha":900,"x_min":0,"x_max":0,"o":"m 342 0 l 558 0 l 558 419 l 928 983 l 671 983 l 450 615 l 242 983 l -28 983 l 342 419 z m 311 1092 l 494 1092 l 735 1292 l 451 1292 z "},"Ÿ":{"ha":900,"x_min":0,"x_max":0,"o":"m 342 0 l 558 0 l 558 419 l 928 983 l 671 983 l 450 615 l 242 983 l -28 983 l 342 419 z m 304 1083 b 422 1203 372 1083 422 1136 b 301 1317 422 1269 365 1317 b 189 1203 240 1317 189 1263 b 304 1083 189 1139 239 1083 z m 593 1083 b 711 1203 661 1083 711 1136 b 590 1317 711 1269 654 1317 b 478 1203 529 1317 478 1263 b 593 1083 478 1139 528 1083 z "},"Ž":{"ha":875,"x_min":0,"x_max":0,"o":"m 49 0 l 826 0 l 826 200 l 321 200 l 810 792 l 810 983 l 67 983 l 67 792 l 547 792 l 49 200 z m 156 1292 l 317 1092 l 543 1092 l 708 1292 l 521 1292 l 435 1183 l 347 1292 z "},"á":{"ha":746,"x_min":0,"x_max":0,"o":"m 497 0 l 689 0 l 689 343 b 381 692 689 568 624 692 b 83 583 271 692 160 656 l 194 469 b 364 550 239 519 296 550 b 497 429 436 550 497 503 b 40 192 324 429 40 425 b 281 -17 40 56 154 -17 b 494 85 365 -17 449 13 l 497 85 z m 497 296 l 497 251 b 339 125 497 168 421 125 b 240 199 293 125 240 149 b 446 296 240 290 382 296 z m 235 783 l 418 783 l 658 983 l 375 983 z "},"â":{"ha":746,"x_min":0,"x_max":0,"o":"m 497 0 l 689 0 l 689 343 b 381 692 689 568 624 692 b 83 583 271 692 160 656 l 194 469 b 364 550 239 519 296 550 b 497 429 436 550 497 503 b 40 192 324 429 40 425 b 281 -17 40 56 154 -17 b 494 85 365 -17 449 13 l 497 85 z m 497 296 l 497 251 b 339 125 497 168 421 125 b 240 199 293 125 240 149 b 446 296 240 290 382 296 z m 650 783 l 489 983 l 263 983 l 97 783 l 285 783 l 371 892 l 458 783 z "},"ä":{"ha":746,"x_min":0,"x_max":0,"o":"m 497 0 l 689 0 l 689 343 b 381 692 689 568 624 692 b 83 583 271 692 160 656 l 194 469 b 364 550 239 519 296 550 b 497 429 436 550 497 503 b 40 192 324 429 40 425 b 281 -17 40 56 154 -17 b 494 85 365 -17 449 13 l 497 85 z m 497 296 l 497 251 b 339 125 497 168 421 125 b 240 199 293 125 240 149 b 446 296 240 290 382 296 z m 228 775 b 346 894 296 775 346 828 b 225 1008 346 961 289 1008 b 113 894 164 1008 113 954 b 228 775 113 831 163 775 z m 517 775 b 635 894 585 775 635 828 b 514 1008 635 961 578 1008 b 401 894 453 1008 401 954 b 517 775 401 831 451 775 z "},"à":{"ha":746,"x_min":0,"x_max":0,"o":"m 497 0 l 689 0 l 689 343 b 381 692 689 568 624 692 b 83 583 271 692 160 656 l 194 469 b 364 550 239 519 296 550 b 497 429 436 550 497 503 b 40 192 324 429 40 425 b 281 -17 40 56 154 -17 b 494 85 365 -17 449 13 l 497 85 z m 497 296 l 497 251 b 339 125 497 168 421 125 b 240 199 293 125 240 149 b 446 296 240 290 382 296 z m 375 983 l 92 983 l 332 783 l 515 783 z "},"å":{"ha":746,"x_min":0,"x_max":0,"o":"m 497 0 l 689 0 l 689 343 b 381 692 689 568 624 692 b 83 583 271 692 160 656 l 194 469 b 364 550 239 519 296 550 b 497 429 436 550 497 503 b 40 192 324 429 40 425 b 281 -17 40 56 154 -17 b 494 85 365 -17 449 13 l 497 85 z m 497 296 l 497 251 b 339 125 497 168 421 125 b 240 199 293 125 240 149 b 446 296 240 290 382 296 z m 374 757 b 528 911 458 757 528 826 b 374 1065 528 996 458 1065 b 219 911 289 1065 219 996 b 374 757 219 826 289 757 z m 303 911 b 374 982 303 950 335 982 b 444 911 413 982 444 950 b 374 840 444 872 413 840 b 303 911 335 840 303 872 z "},"ã":{"ha":746,"x_min":0,"x_max":0,"o":"m 497 0 l 689 0 l 689 343 b 381 692 689 568 624 692 b 83 583 271 692 160 656 l 194 469 b 364 550 239 519 296 550 b 497 429 436 550 497 503 b 40 192 324 429 40 425 b 281 -17 40 56 154 -17 b 494 85 365 -17 449 13 l 497 85 z m 497 296 l 497 251 b 339 125 497 168 421 125 b 240 199 293 125 240 149 b 446 296 240 290 382 296 z m 211 792 b 269 850 219 818 238 850 b 357 821 297 850 325 836 b 465 792 389 807 425 792 b 646 983 582 792 628 878 l 538 983 b 476 933 525 956 508 933 b 399 954 449 933 424 944 b 278 983 358 971 324 983 b 101 792 174 983 117 885 z "},"ç":{"ha":669,"x_min":0,"x_max":0,"o":"m 668 601 b 428 692 603 668 507 692 b 53 338 219 692 53 553 b 331 -4 53 157 169 31 l 247 -129 l 292 -169 b 342 -158 308 -162 324 -158 b 411 -206 369 -158 411 -172 b 319 -250 411 -242 363 -250 b 213 -226 272 -250 235 -235 l 178 -292 b 351 -333 226 -315 296 -333 b 544 -199 422 -333 544 -300 b 369 -83 544 -96 451 -83 l 415 -15 b 428 -17 418 -17 424 -17 b 668 74 507 -17 603 7 l 531 218 b 428 167 507 190 474 167 b 261 338 324 167 261 236 b 428 508 261 439 324 508 b 531 457 471 508 510 486 z "},"é":{"ha":797,"x_min":0,"x_max":0,"o":"m 567 224 b 418 142 532 176 486 142 b 261 272 338 142 278 193 l 744 272 l 744 338 b 428 692 744 553 622 692 b 53 338 219 692 53 553 b 428 -17 53 122 219 -17 b 713 117 536 -17 646 32 z m 261 414 b 408 542 267 479 317 542 b 536 414 483 542 538 483 z m 260 783 l 443 783 l 683 983 l 400 983 z "},"ê":{"ha":797,"x_min":0,"x_max":0,"o":"m 567 224 b 418 142 532 176 486 142 b 261 272 338 142 278 193 l 744 272 l 744 338 b 428 692 744 553 622 692 b 53 338 219 692 53 553 b 428 -17 53 122 219 -17 b 713 117 536 -17 646 32 z m 261 414 b 408 542 267 479 317 542 b 536 414 483 542 538 483 z m 675 783 l 514 983 l 288 983 l 122 783 l 310 783 l 396 892 l 483 783 z "},"ë":{"ha":797,"x_min":0,"x_max":0,"o":"m 567 224 b 418 142 532 176 486 142 b 261 272 338 142 278 193 l 744 272 l 744 338 b 428 692 744 553 622 692 b 53 338 219 692 53 553 b 428 -17 53 122 219 -17 b 713 117 536 -17 646 32 z m 261 414 b 408 542 267 479 317 542 b 536 414 483 542 538 483 z m 253 775 b 371 894 321 775 371 828 b 250 1008 371 961 314 1008 b 138 894 189 1008 138 954 b 253 775 138 831 188 775 z m 542 775 b 660 894 610 775 660 828 b 539 1008 660 961 603 1008 b 426 894 478 1008 426 954 b 542 775 426 831 476 775 z "},"è":{"ha":797,"x_min":0,"x_max":0,"o":"m 567 224 b 418 142 532 176 486 142 b 261 272 338 142 278 193 l 744 272 l 744 338 b 428 692 744 553 622 692 b 53 338 219 692 53 553 b 428 -17 53 122 219 -17 b 713 117 536 -17 646 32 z m 261 414 b 408 542 267 479 317 542 b 536 414 483 542 538 483 z m 400 983 l 117 983 l 357 783 l 540 783 z "},"í":{"ha":361,"x_min":0,"x_max":0,"o":"m 76 0 l 285 0 l 285 675 l 76 675 z m 42 783 l 225 783 l 465 983 l 182 983 z "},"î":{"ha":361,"x_min":0,"x_max":0,"o":"m 76 0 l 285 0 l 285 675 l 76 675 z m 457 783 l 296 983 l 69 983 l -96 783 l 92 783 l 178 892 l 265 783 z "},"ï":{"ha":361,"x_min":0,"x_max":0,"o":"m 76 0 l 285 0 l 285 675 l 76 675 z m 35 775 b 153 894 103 775 153 828 b 32 1008 153 961 96 1008 b -81 894 -29 1008 -81 954 b 35 775 -81 831 -31 775 z m 324 775 b 442 894 392 775 442 828 b 321 1008 442 961 385 1008 b 208 894 260 1008 208 954 b 324 775 208 831 258 775 z "},"ì":{"ha":361,"x_min":0,"x_max":0,"o":"m 76 0 l 285 0 l 285 675 l 76 675 z m 182 983 l -101 983 l 139 783 l 322 783 z "},"ñ":{"ha":797,"x_min":0,"x_max":0,"o":"m 74 0 l 282 0 l 282 336 b 407 508 282 424 299 508 b 515 331 514 508 515 408 l 515 0 l 724 0 l 724 372 b 474 692 724 553 685 692 b 276 583 372 692 304 636 l 274 583 l 274 675 l 74 675 z m 236 792 b 294 850 244 818 263 850 b 382 821 322 850 350 836 b 490 792 414 807 450 792 b 671 983 607 792 653 878 l 563 983 b 501 933 550 956 533 933 b 424 954 474 933 449 944 b 303 983 383 971 349 983 b 126 792 199 983 142 885 z "},"ó":{"ha":847,"x_min":0,"x_max":0,"o":"m 49 338 b 424 -17 49 122 215 -17 b 799 338 632 -17 799 122 b 424 692 799 553 632 692 b 49 338 215 692 49 553 z m 257 338 b 424 508 257 439 319 508 b 590 338 528 508 590 439 b 424 167 590 236 528 167 b 257 338 319 167 257 236 z m 285 783 l 468 783 l 708 983 l 425 983 z "},"ô":{"ha":847,"x_min":0,"x_max":0,"o":"m 49 338 b 424 -17 49 122 215 -17 b 799 338 632 -17 799 122 b 424 692 799 553 632 692 b 49 338 215 692 49 553 z m 257 338 b 424 508 257 439 319 508 b 590 338 528 508 590 439 b 424 167 590 236 528 167 b 257 338 319 167 257 236 z m 700 783 l 539 983 l 313 983 l 147 783 l 335 783 l 421 892 l 508 783 z "},"ö":{"ha":847,"x_min":0,"x_max":0,"o":"m 49 338 b 424 -17 49 122 215 -17 b 799 338 632 -17 799 122 b 424 692 799 553 632 692 b 49 338 215 692 49 553 z m 257 338 b 424 508 257 439 319 508 b 590 338 528 508 590 439 b 424 167 590 236 528 167 b 257 338 319 167 257 236 z m 278 775 b 396 894 346 775 396 828 b 275 1008 396 961 339 1008 b 163 894 214 1008 163 954 b 278 775 163 831 213 775 z m 567 775 b 685 894 635 775 685 828 b 564 1008 685 961 628 1008 b 451 894 503 1008 451 954 b 567 775 451 831 501 775 z "},"ò":{"ha":847,"x_min":0,"x_max":0,"o":"m 49 338 b 424 -17 49 122 215 -17 b 799 338 632 -17 799 122 b 424 692 799 553 632 692 b 49 338 215 692 49 553 z m 257 338 b 424 508 257 439 319 508 b 590 338 528 508 590 439 b 424 167 590 236 528 167 b 257 338 319 167 257 236 z m 425 983 l 142 983 l 382 783 l 565 783 z "},"õ":{"ha":847,"x_min":0,"x_max":0,"o":"m 49 338 b 424 -17 49 122 215 -17 b 799 338 632 -17 799 122 b 424 692 799 553 632 692 b 49 338 215 692 49 553 z m 257 338 b 424 508 257 439 319 508 b 590 338 528 508 590 439 b 424 167 590 236 528 167 b 257 338 319 167 257 236 z m 261 792 b 319 850 269 818 288 850 b 407 821 347 850 375 836 b 515 792 439 807 475 792 b 696 983 632 792 678 878 l 588 983 b 526 933 575 956 558 933 b 449 954 499 933 474 944 b 328 983 408 971 374 983 b 151 792 224 983 167 885 z "},"š":{"ha":643,"x_min":0,"x_max":0,"o":"m 583 603 b 333 692 521 669 422 692 b 50 464 192 692 50 622 b 401 190 50 207 401 299 b 307 142 401 154 354 142 b 160 215 244 142 199 168 l 33 75 b 299 -17 100 7 204 -17 b 610 206 443 -17 610 33 b 258 478 610 463 258 378 b 335 533 258 518 300 533 b 456 476 385 533 425 514 z m 40 983 l 201 783 l 428 783 l 593 983 l 406 983 l 319 875 l 232 983 z "},"ú":{"ha":797,"x_min":0,"x_max":0,"o":"m 724 675 l 515 675 l 515 339 b 390 167 515 251 499 167 b 282 344 283 167 282 267 l 282 675 l 74 675 l 74 303 b 324 -17 74 122 113 -17 b 521 92 425 -17 493 39 l 524 92 l 524 0 l 724 0 z m 260 783 l 443 783 l 683 983 l 400 983 z "},"û":{"ha":797,"x_min":0,"x_max":0,"o":"m 724 675 l 515 675 l 515 339 b 390 167 515 251 499 167 b 282 344 283 167 282 267 l 282 675 l 74 675 l 74 303 b 324 -17 74 122 113 -17 b 521 92 425 -17 493 39 l 524 92 l 524 0 l 724 0 z m 675 783 l 514 983 l 288 983 l 122 783 l 310 783 l 396 892 l 483 783 z "},"ü":{"ha":797,"x_min":0,"x_max":0,"o":"m 724 675 l 515 675 l 515 339 b 390 167 515 251 499 167 b 282 344 283 167 282 267 l 282 675 l 74 675 l 74 303 b 324 -17 74 122 113 -17 b 521 92 425 -17 493 39 l 524 92 l 524 0 l 724 0 z m 253 775 b 371 894 321 775 371 828 b 250 1008 371 961 314 1008 b 138 894 189 1008 138 954 b 253 775 138 831 188 775 z m 542 775 b 660 894 610 775 660 828 b 539 1008 660 961 603 1008 b 426 894 478 1008 426 954 b 542 775 426 831 476 775 z "},"ù":{"ha":797,"x_min":0,"x_max":0,"o":"m 724 675 l 515 675 l 515 339 b 390 167 515 251 499 167 b 282 344 283 167 282 267 l 282 675 l 74 675 l 74 303 b 324 -17 74 122 113 -17 b 521 92 425 -17 493 39 l 524 92 l 524 0 l 724 0 z m 400 983 l 117 983 l 357 783 l 540 783 z "},"ý":{"ha":772,"x_min":0,"x_max":0,"o":"m 768 675 l 554 675 l 406 229 l 403 229 l 229 675 l 4 675 l 300 -6 l 285 -44 b 146 -158 256 -118 240 -158 b 49 -137 111 -158 81 -151 l 21 -308 b 176 -333 71 -325 124 -333 b 463 -110 375 -333 407 -253 z m 247 783 l 431 783 l 671 983 l 388 983 z "},"ÿ":{"ha":772,"x_min":0,"x_max":0,"o":"m 768 675 l 554 675 l 406 229 l 403 229 l 229 675 l 4 675 l 300 -6 l 285 -44 b 146 -158 256 -118 240 -158 b 49 -137 111 -158 81 -151 l 21 -308 b 176 -333 71 -325 124 -333 b 463 -110 375 -333 407 -253 z m 240 775 b 358 894 308 775 358 828 b 238 1008 358 961 301 1008 b 125 894 176 1008 125 954 b 240 775 125 831 175 775 z m 529 775 b 647 894 597 775 647 828 b 526 1008 647 961 590 1008 b 414 894 465 1008 414 954 b 529 775 414 831 464 775 z "},"ž":{"ha":694,"x_min":0,"x_max":0,"o":"m 47 0 l 647 0 l 647 167 l 272 167 l 639 475 l 639 675 l 56 675 l 56 508 l 397 508 l 47 208 z m 65 983 l 226 783 l 453 783 l 618 983 l 431 983 l 344 875 l 257 983 z "},"∆":{"ha":963,"x_min":0,"x_max":0,"o":"m 38 0 l 924 0 l 924 110 l 600 1001 l 371 1001 l 38 108 z m 236 151 l 401 579 b 475 806 424 654 463 758 l 479 806 b 560 558 496 746 538 632 l 715 151 z "},"Ω":{"ha":1043,"x_min":0,"x_max":0,"o":"m 253 151 l 54 151 l 54 0 l 449 0 l 449 113 b 269 506 353 167 269 306 b 524 840 269 699 371 840 b 772 513 685 840 772 685 b 593 113 772 293 686 171 l 593 0 l 986 0 l 986 151 l 785 151 l 785 156 b 967 553 878 235 967 372 b 525 994 967 763 811 994 b 75 544 256 994 75 789 b 253 156 75 365 165 233 z "},"μ":{"ha":797,"x_min":0,"x_max":0,"o":"m 724 675 l 515 675 l 515 339 b 390 167 515 251 499 167 b 282 344 283 167 282 267 l 282 675 l 74 675 l 74 -317 l 282 -317 l 282 -12 b 324 -17 294 -15 308 -17 b 521 92 425 -17 493 39 l 524 92 l 524 0 l 724 0 z "},"π":{"ha":885,"x_min":0,"x_max":0,"o":"m 850 578 l 864 736 l 247 736 b 6 688 119 736 42 717 l 26 564 b 169 578 58 574 101 578 b 81 0 167 425 128 161 l 267 0 b 358 578 317 140 351 425 l 556 578 l 556 204 b 581 0 556 104 563 29 l 767 0 b 747 214 756 44 747 110 l 747 578 z "},"€":{"ha":822,"x_min":0,"x_max":0,"o":"m 803 104 b 503 -17 742 32 626 -17 b 126 308 296 -17 169 97 l 14 308 l 53 433 l 111 433 b 110 458 110 442 110 450 l 110 485 b 113 553 110 508 111 531 l 18 553 l 61 681 l 133 681 b 560 1000 189 890 338 1000 b 775 960 624 1000 738 982 l 711 779 b 560 814 683 797 625 814 b 353 681 465 814 393 775 l 679 681 l 638 553 l 324 553 b 321 490 322 532 321 513 l 321 461 b 322 433 321 451 321 443 l 606 433 l 565 308 l 343 308 b 522 164 371 218 428 164 b 689 244 599 164 650 196 z "},"ℓ":{"ha":758,"x_min":0,"x_max":0,"o":"m 653 269 b 465 140 611 204 544 140 b 339 285 396 140 342 190 l 338 339 b 628 826 517 504 628 658 b 418 1078 628 964 563 1078 b 154 714 271 1078 154 968 l 154 369 b 33 272 117 336 76 307 l 82 174 b 156 229 108 190 132 211 b 157 214 157 224 157 219 b 421 -12 175 90 250 -12 b 731 189 538 -12 653 40 z m 338 725 b 426 946 338 897 385 946 b 504 831 483 946 504 901 b 338 510 504 735 435 618 z "},"℮":{"ha":1226,"x_min":0,"x_max":0,"o":"m 1176 478 l 1176 492 b 611 1000 1176 772 924 1000 b 47 492 300 1000 47 772 b 611 -15 47 211 300 -15 b 1058 181 793 -15 957 63 l 976 181 b 613 13 888 79 758 13 b 267 163 478 13 356 71 b 256 194 260 172 256 183 l 256 471 b 263 478 256 476 258 478 z m 969 514 b 964 504 969 511 968 504 l 263 504 b 256 514 258 504 256 511 l 256 786 b 268 821 256 799 260 811 b 613 969 357 911 479 969 b 956 825 747 969 867 913 b 969 792 965 815 969 804 z "},"∂":{"ha":842,"x_min":0,"x_max":0,"o":"m 149 886 b 342 953 186 914 251 953 b 588 621 492 953 588 796 b 586 575 588 610 588 586 l 585 575 b 368 690 563 611 489 690 b 53 324 192 690 53 547 b 360 -11 53 176 150 -11 b 774 569 618 -11 774 225 b 367 1107 774 921 586 1107 b 94 1024 226 1107 139 1057 z m 378 144 b 242 318 296 144 242 222 b 408 542 242 436 310 542 b 568 422 497 542 556 465 b 379 144 553 294 486 144 z "},"∏":{"ha":1054,"x_min":0,"x_max":0,"o":"m 1019 810 l 1019 979 l 33 979 l 33 810 l 183 810 l 183 -135 l 371 -135 l 371 810 l 682 810 l 682 -135 l 869 -135 l 869 810 z "},"∑":{"ha":817,"x_min":0,"x_max":0,"o":"m 790 -135 l 790 38 l 272 38 l 272 42 l 596 451 l 303 814 l 303 819 l 767 819 l 767 979 l 46 979 l 46 849 l 382 422 l 32 -17 l 32 -135 z "},"∙":{"ha":411,"x_min":0,"x_max":0,"o":"m 78 393 b 206 265 78 322 135 265 b 333 393 276 265 333 322 b 206 521 333 464 276 521 b 78 393 135 521 78 464 z "},"√":{"ha":867,"x_min":0,"x_max":0,"o":"m 882 1175 l 749 1175 l 501 138 b 478 7 492 89 483 39 l 476 8 b 447 129 468 42 457 86 l 296 576 l 44 474 l 76 371 l 183 414 l 401 -197 l 553 -197 z "},"∞":{"ha":1115,"x_min":0,"x_max":0,"o":"m 1046 406 b 824 643 1046 549 949 643 b 564 485 696 644 624 551 b 307 643 490 581 414 643 b 68 397 171 643 68 542 b 294 154 68 253 175 154 b 558 317 410 154 485 225 b 815 154 654 190 733 154 b 1046 404 933 154 1046 247 z m 307 257 b 172 396 231 257 172 319 b 303 543 172 481 222 543 b 503 392 394 543 444 471 b 310 257 449 328 389 257 z m 813 543 b 942 396 890 543 942 482 b 818 257 942 333 897 257 b 617 401 747 257 703 294 b 811 543 661 454 725 543 z "},"∫":{"ha":569,"x_min":0,"x_max":0,"o":"m 542 1196 b 453 1213 525 1203 489 1213 b 282 1147 390 1213 324 1193 b 194 829 219 1083 194 993 b 217 140 194 589 217 397 b 176 -76 217 15 203 -42 b 113 -104 161 -96 136 -104 b 50 -89 86 -104 64 -94 l 26 -221 b 140 -244 49 -232 94 -244 b 328 -139 213 -244 289 -215 b 381 140 360 -83 381 8 b 358 811 381 394 358 582 b 397 1044 358 926 367 1006 b 469 1081 415 1069 442 1081 b 522 1068 490 1081 508 1075 z "},"≈":{"ha":799,"x_min":0,"x_max":0,"o":"m 675 642 b 544 539 636 579 600 539 b 418 590 500 539 471 558 b 265 642 381 611 335 642 b 53 496 176 642 96 579 l 121 433 b 257 536 157 485 193 536 b 382 489 304 536 340 514 b 544 432 446 450 485 432 b 742 578 625 432 694 490 z m 675 372 b 543 271 633 310 600 271 b 418 322 496 271 463 297 b 265 374 381 343 335 374 b 53 228 176 374 96 310 l 121 164 b 257 268 157 217 193 268 b 382 219 304 268 338 246 b 543 163 444 183 485 163 b 742 310 626 163 694 224 z "},"≠":{"ha":799,"x_min":0,"x_max":0,"o":"m 589 726 l 503 761 l 432 601 l 69 601 l 69 493 l 390 493 l 306 301 l 69 301 l 69 194 l 264 194 l 207 67 l 292 31 l 364 194 l 729 194 l 729 301 l 407 301 l 492 493 l 729 493 l 729 601 l 533 601 z "},"≤":{"ha":799,"x_min":0,"x_max":0,"o":"m 725 142 l 725 267 l 185 517 l 185 519 l 725 767 l 725 892 l 76 575 l 76 458 z m 731 -21 l 731 89 l 71 89 l 71 -21 z "},"≥":{"ha":799,"x_min":0,"x_max":0,"o":"m 78 892 l 78 767 l 618 519 l 618 515 l 79 267 l 79 142 l 728 458 l 728 575 z m 728 -21 l 728 89 l 72 89 l 72 -21 z "},"◊":{"ha":865,"x_min":0,"x_max":0,"o":"m 794 489 l 511 1049 l 360 1049 l 71 489 l 354 -71 l 504 -71 z m 628 485 l 460 151 b 435 78 453 138 440 97 l 429 78 b 404 154 425 96 415 128 l 238 493 l 403 818 b 431 899 414 844 424 874 l 435 899 b 463 818 440 875 451 843 z "}," ":{"ha":411,"x_min":0,"x_max":0,"o":""},"­":{"ha":411,"x_min":0,"x_max":0,"o":"m 376 429 l 35 429 l 35 263 l 376 263 z "},"ˉ":{"ha":361,"x_min":0,"x_max":0,"o":"m 417 954 l -56 954 l -56 821 l 417 821 z "},"Ω":{"ha":1043,"x_min":0,"x_max":0,"o":"m 253 151 l 54 151 l 54 0 l 449 0 l 449 113 b 269 506 353 167 269 306 b 524 840 269 699 371 840 b 772 513 685 840 772 685 b 593 113 772 293 686 171 l 593 0 l 986 0 l 986 151 l 785 151 l 785 156 b 967 553 878 235 967 372 b 525 994 967 763 811 994 b 75 544 256 994 75 789 b 253 156 75 365 165 233 z "},"∕":{"ha":232,"x_min":0,"x_max":0,"o":"m -224 15 l -118 -44 l 456 963 l 339 1028 z "}}}
